<svg width="64" height="42" viewBox="0 0 64 42" fill="none" xmlns="http://www.w3.org/2000/svg">
<g clip-path="url(#clip0_1407_866)">
<path d="M14.384 17.7695L8.77432 22.6251C8.19894 20.1976 6.32942 18.416 4.02772 18.416H-3.05176e-05V29.5821H4.02772C6.32924 29.5821 8.34276 27.8024 8.77423 25.3751L14.3836 30.2286L19.9947 25.3751V29.5821H26.3228V27.3165H22.1527V18.416H19.8506V22.6231L14.5279 27.481L13.3768 26.3482L15.9671 24.0806L18.6995 21.6548L17.1182 20.1997L11.7955 24.8912L10.6444 23.7584L15.9673 19.2271L14.384 17.772V17.7695ZM2.1582 20.6816H3.8839C4.24354 20.6816 4.59501 20.7726 4.91866 20.9394C5.2423 21.1063 5.53848 21.3489 5.79022 21.6523C6.04195 21.9557 6.2488 22.3189 6.39262 22.7286C6.53644 23.1382 6.61662 23.5946 6.61662 24.0802C6.61662 24.5252 6.54435 24.9595 6.41173 25.3614C6.27893 25.7634 6.08675 26.1338 5.844 26.4473C5.60133 26.7609 5.30808 27.0178 4.97768 27.1973C4.64728 27.3769 4.27954 27.4766 3.8839 27.4766H2.1582V20.6816ZM33.5157 27.317V29.5826H27.1866V18.4165H29.4881V27.3166L33.5157 27.317Z" fill="#007DB8"/>
<path d="M60.1665 29.789C62.1136 29.789 63.6956 28.6937 63.9999 26.2979L63.8781 26.161H63.3306L63.2089 26.2979C62.9046 28.0092 61.9311 28.9676 60.2274 28.9676C58.0977 28.9676 56.5765 27.1878 56.5765 24.0389C56.5765 20.89 58.1586 19.1103 60.2274 19.1103C61.9311 19.1103 62.9047 20.0686 63.2089 21.6431L63.3307 21.7801H63.8782L64 21.6433C63.696 19.4528 62.1742 18.2891 60.1662 18.2891C57.7931 18.2891 55.6634 20.2058 55.6634 23.9707C55.6634 27.8727 57.7934 29.789 60.1665 29.789ZM53.96 29.4467V18.6307L53.8382 18.4938H52.8647L52.7429 18.6308L49.0921 28.2828H48.9703L45.1979 18.6308L45.0761 18.4938H44.1026L43.9808 18.6308V29.4468L44.1026 29.5836H44.6501L44.7719 29.4467V20.274H44.8936L48.4228 29.4468L48.5445 29.5838H49.2746L49.3964 29.4468L52.9255 20.274H53.108V29.4468L53.2297 29.5838H53.7773L53.96 29.4467ZM42.095 29.4467V28.9676L41.9732 28.8306H36.7403L36.6187 28.6937V24.5865L36.7404 24.4496H41.6691L41.7908 24.3127V23.7651L41.669 23.6282H36.7404L36.6186 23.4912V19.4526L36.7404 19.3156H41.9733L42.095 19.1788V18.631L41.9732 18.494H35.8885L35.7667 18.631V29.447L35.8885 29.5839H41.9733L42.095 29.4467Z" fill="#808080"/>
</g>
<defs>
<clipPath id="clip0_1407_866">
<rect width="64" height="48" fill="white"/>
</clipPath>
</defs>
</svg>
