<svg width="35" height="38" viewBox="0 0 35 38" fill="none" xmlns="http://www.w3.org/2000/svg">
<path d="M34.3333 20C34.3333 8.95391 26.6479 0 17.1667 0C16.9082 0 16.651 0.00761523 16.395 0.0212826L12.8837 11.2652H15.942C17.7614 11.2652 18.7419 12.8973 18.1191 14.8907L13.7878 28.7584L10.1511 28.7576L14.799 13.8936H12.0644L7.41645 28.7576H3.77842L9.24365 11.2652H9.2443L12.5318 0.738517C5.30271 3.09459 0 10.8255 0 20C0 29.4467 5.62255 37.3632 13.1813 39.457L16.367 29.2574H16.3696L21.9895 11.2652H28.6879C30.5093 11.2652 31.4891 12.8973 30.8663 14.8907L27.0605 27.0708C26.7706 27.9986 25.8404 28.7576 24.9931 28.7576H20.165L16.6568 39.9909C16.8259 39.9962 16.9963 40 17.1667 40C26.6479 40 34.3333 31.0454 34.3333 20Z" fill="#0096D6"/>
<path d="M27.554 13.8828H24.8208L20.9927 26.1192H23.726L27.554 13.8828Z" fill="#0096D6"/>
</svg>
