<svg width="64" height="42" viewBox="0 0 64 42" fill="none" xmlns="http://www.w3.org/2000/svg">
<path d="M22.6111 25.1679L22.2302 26.3823H22.1985C22.135 26.1084 22.0186 25.6917 21.8282 25.1917L19.7862 19.4173H17.7866V28.6206H19.1091V22.9414C19.1091 22.5843 19.1091 22.1795 19.0985 21.6794C19.088 21.4294 19.0668 21.2389 19.0562 21.096H19.088C19.1514 21.4532 19.2255 21.7151 19.2784 21.8818L21.7329 28.5968H22.664L25.0973 21.8223C25.1502 21.6675 25.2031 21.358 25.256 21.096H25.2878C25.256 21.7747 25.2349 22.3819 25.2243 22.751V28.5849H26.6314V19.3935H24.7059L22.6111 25.1679ZM27.9645 21.989H29.3399V28.5849H27.9645V21.989ZM28.6628 19.203C28.43 19.203 28.2396 19.2982 28.0809 19.4649C27.9222 19.6316 27.8375 19.8459 27.8375 20.1078C27.8375 20.3579 27.9222 20.5722 28.0809 20.7389C28.2396 20.9055 28.43 20.9889 28.6628 20.9889C28.8955 20.9889 29.0965 20.8936 29.2447 20.7389C29.4033 20.5722 29.488 20.3579 29.488 20.1078C29.488 19.8578 29.4033 19.6435 29.2447 19.4649C29.1071 19.2982 28.9061 19.203 28.6628 19.203ZM34.2172 21.9294C33.9633 21.8699 33.6988 21.8342 33.4449 21.8342C32.8207 21.8342 32.2493 21.989 31.7732 22.2985C31.2971 22.6081 30.9163 23.0367 30.6729 23.5725C30.419 24.1201 30.2921 24.7511 30.2921 25.4774C30.2921 26.1084 30.419 26.668 30.6624 27.18C30.9057 27.68 31.2443 28.0848 31.6992 28.3586C32.133 28.6325 32.6408 28.7753 33.2121 28.7753C33.8681 28.7753 34.4288 28.6206 34.8731 28.3348L34.8837 28.3229V26.8942L34.8308 26.9418C34.6298 27.1085 34.3971 27.2514 34.1643 27.3347C33.921 27.43 33.6988 27.4776 33.5083 27.4776C32.9582 27.4776 32.5244 27.299 32.2176 26.9061C31.9002 26.5251 31.7415 26.0013 31.7415 25.3464C31.7415 24.6678 31.9002 24.132 32.2282 23.7391C32.5562 23.3462 32.9899 23.1438 33.5189 23.1438C33.9633 23.1438 34.4182 23.3105 34.8308 23.6439L34.8837 23.6915V22.1795L34.8731 22.1676C34.6933 22.0842 34.4923 21.989 34.2172 21.9294ZM38.756 21.8818C38.4174 21.8818 38.1 22.0009 37.8249 22.2509C37.5922 22.4652 37.4335 22.7748 37.2959 23.1438H37.2854V21.989H35.91V28.5849H37.2854V25.2155C37.2854 24.644 37.3912 24.1678 37.6239 23.8225C37.8567 23.4653 38.1529 23.2867 38.5126 23.2867C38.6396 23.2867 38.7665 23.3224 38.9252 23.3462C39.0734 23.3939 39.1792 23.4415 39.2532 23.501L39.3061 23.5486V22.0009L39.2744 21.989C39.1792 21.9175 38.9887 21.8818 38.756 21.8818ZM42.5012 21.8461C41.5385 21.8461 40.7661 22.1676 40.2266 22.7986C39.6764 23.4296 39.4119 24.2987 39.4119 25.3941C39.4119 26.418 39.687 27.2514 40.216 27.8586C40.745 28.4539 41.4644 28.7634 42.3637 28.7634C43.3053 28.7634 44.0565 28.442 44.5961 27.7991C45.1462 27.1561 45.4107 26.2989 45.4107 25.2393C45.4107 24.1916 45.1568 23.3582 44.6384 22.751C44.1411 22.1438 43.4111 21.8461 42.5012 21.8461ZM43.6016 26.918C43.3476 27.2871 42.9456 27.4657 42.4483 27.4657C41.9511 27.4657 41.5491 27.2871 41.2634 26.8942C40.9777 26.5251 40.8402 25.9894 40.8402 25.3107C40.8402 24.6083 40.9883 24.0725 41.2634 23.6915C41.5491 23.3105 41.9405 23.12 42.4378 23.12C42.9244 23.12 43.3053 23.2986 43.5804 23.6677C43.8555 24.0368 44.0036 24.5726 44.0036 25.275C43.9824 25.9894 43.8661 26.5489 43.6016 26.918ZM48.4789 24.7273C48.0451 24.5249 47.77 24.3702 47.6431 24.2392C47.5373 24.1201 47.4844 23.9535 47.4844 23.7391C47.4844 23.5606 47.5478 23.382 47.7065 23.2629C47.8652 23.1438 48.0451 23.0843 48.3096 23.0843C48.5424 23.0843 48.7857 23.1319 49.0185 23.2034C49.2512 23.2748 49.4628 23.382 49.6321 23.5248L49.685 23.5725V22.1199L49.6532 22.108C49.4945 22.0366 49.2829 21.9652 49.029 21.9056C48.7751 21.858 48.5424 21.8342 48.3519 21.8342C47.696 21.8342 47.1564 22.0128 46.7332 22.4057C46.31 22.7748 46.109 23.2748 46.109 23.8582C46.109 24.1678 46.1513 24.4416 46.2465 24.6678C46.3417 24.894 46.4793 25.1083 46.6697 25.2869C46.8602 25.4536 47.1352 25.6441 47.5161 25.8227C47.8335 25.9775 48.0768 26.0965 48.225 26.1918C48.3731 26.287 48.4683 26.3942 48.5424 26.4775C48.5953 26.5728 48.627 26.6918 48.627 26.8466C48.627 27.2871 48.3308 27.5014 47.7277 27.5014C47.495 27.5014 47.2516 27.4538 46.966 27.3466C46.6803 27.2395 46.4158 27.0847 46.1936 26.9061L46.1407 26.8585V28.3705L46.1725 28.3825C46.3735 28.4896 46.6168 28.561 46.9131 28.6444C47.2093 28.7039 47.4738 28.7515 47.7065 28.7515C48.4154 28.7515 48.9973 28.5729 49.4099 28.1801C49.8331 27.7991 50.0553 27.3109 50.0553 26.6799C50.0553 26.2394 49.9495 25.8465 49.7167 25.5488C49.4099 25.2631 49.029 24.9655 48.4789 24.7273ZM53.6842 21.8461C52.7214 21.8461 51.9491 22.1676 51.4095 22.7986C50.8699 23.4296 50.5949 24.2987 50.5949 25.3941C50.5949 26.418 50.8699 27.2514 51.3989 27.8586C51.9279 28.4539 52.6474 28.7634 53.5466 28.7634C54.4883 28.7634 55.2394 28.442 55.779 27.7991C56.3292 27.1561 56.5937 26.2989 56.5937 25.2393C56.5937 24.1916 56.3397 23.3582 55.8213 22.751C55.3241 22.1438 54.5941 21.8461 53.6842 21.8461ZM54.7739 26.918C54.52 27.2871 54.118 27.4657 53.6207 27.4657C53.1129 27.4657 52.7214 27.2871 52.4358 26.8942C52.1501 26.5251 52.0126 25.9894 52.0126 25.3107C52.0126 24.6083 52.1607 24.0725 52.4358 23.6915C52.7214 23.3105 53.1129 23.12 53.6101 23.12C54.0862 23.12 54.4777 23.2986 54.7528 23.6677C55.0278 24.0368 55.1759 24.5726 55.1759 25.275C55.1759 25.9894 55.0384 26.5489 54.7739 26.918ZM63.9467 23.2629V21.989H62.5607V20.0364L62.5184 20.0483L61.2065 20.4888L61.1747 20.5007V21.989H59.1011V21.1556C59.1011 20.7746 59.1857 20.4769 59.3338 20.2864C59.482 20.0959 59.7041 20.0007 59.9792 20.0007C60.1697 20.0007 60.3707 20.0483 60.5928 20.1555L60.6457 20.1912V18.8458L60.614 18.8339C60.4236 18.7625 60.1696 18.7148 59.8417 18.7148C59.4291 18.7148 59.0693 18.822 58.7414 19.0006C58.4134 19.203 58.17 19.4768 57.9902 19.8459C57.8103 20.2031 57.7151 20.6079 57.7151 21.0722V21.989H56.7523V23.251H57.7151V28.5849H59.1011V23.2629H61.1747V26.6561C61.1747 28.0491 61.7566 28.7515 62.9204 28.7515C63.1109 28.7515 63.3119 28.7158 63.5023 28.6801C63.7033 28.6325 63.8514 28.5729 63.9361 28.5253L63.9467 28.5134V27.2395L63.8938 27.2871C63.8091 27.3466 63.7351 27.3943 63.6081 27.43C63.5023 27.4657 63.4071 27.4776 63.333 27.4776C63.058 27.4776 62.8675 27.4062 62.73 27.2276C62.603 27.0609 62.5395 26.7871 62.5395 26.3823V23.2629H63.9467Z" fill="#737373"/>
<path d="M0.0532417 16.3223H6.53871V23.6206H0.0532417V16.3223Z" fill="#F25022"/>
<path d="M7.21747 16.3223H13.7029V23.6206H7.21747V16.3223Z" fill="#7FBA00"/>
<path d="M0.0532417 24.3789H6.53871V31.6772H0.0532417V24.3789Z" fill="#00A4EF"/>
<path d="M7.21747 24.3789H13.7029V31.6772H7.21747V24.3789Z" fill="#FFB900"/>
</svg>
