<svg width="64" height="42" viewBox="0 0 64 42" fill="none" xmlns="http://www.w3.org/2000/svg">
<g clip-path="url(#clip0_1407_478)">
<path d="M0.5072 27.8371H5.32896C6.16928 27.8371 6.62944 27.7478 6.8992 27.5516C7.23232 27.319 7.42272 26.9277 7.42272 26.4637C7.42272 25.9103 7.16864 25.4283 6.7408 25.1961C6.51904 25.0535 6.10592 24.9819 5.5984 24.9819H3.64736C2.37888 24.9819 1.55392 24.7321 0.99904 24.1967C0.36448 23.5718 0 22.6084 0 21.5738C0 20.0571 0.74528 18.7366 1.83968 18.3082C2.31552 18.1117 2.8704 18.0587 4.10784 18.0587H9.34176V20.182H4.61504C3.61568 20.1997 3.53632 20.1997 3.20352 20.2889C2.75968 20.4135 2.48992 20.8775 2.48992 21.5018C2.48992 22.0378 2.71168 22.4659 3.0928 22.6621C3.40992 22.823 3.66368 22.8583 4.42528 22.8583H6.12224C7.6768 22.8583 8.51712 23.1261 9.136 23.84C9.61184 24.3749 9.92928 25.4283 9.92928 26.4637C9.92928 27.7305 9.40576 28.9077 8.58112 29.479C8.05792 29.8534 7.392 29.9604 5.82112 29.9604H0.5072V27.8371ZM15.9718 17.9688C14.481 17.9688 13.1802 18.3795 12.3555 19.129C11.3088 20.0571 10.7539 21.7883 10.7539 24.0725C10.7539 25.6601 11.0544 26.9637 11.6736 27.9447C12.4982 29.2835 14.1008 30.0334 16.1309 30.0334C17.5584 30.0334 18.7642 29.6399 19.5574 28.9264C20.6042 27.9814 21.192 26.2667 21.192 24.1787L21.1872 23.8382L21.1744 23.503L21.1533 23.1769L21.1248 22.8568L21.0877 22.5447L21.0416 22.2423L20.9888 21.9496L20.9277 21.6663L20.8944 21.5281L20.8589 21.3931L20.8218 21.2595L20.783 21.131L20.743 21.0028L20.7002 20.8786L20.6554 20.7584L20.6086 20.6389L20.5616 20.5251L20.512 20.4128L20.4605 20.3037L20.4074 20.199L20.3517 20.0963L20.2957 19.9966L20.2371 19.9016L20.177 19.8101C19.3674 18.6297 17.8595 17.9688 15.9718 17.9688ZM15.9872 19.9844C17.8749 19.9844 18.7155 21.2347 18.7155 24.0178C18.7155 26.7661 17.8589 28.0329 15.9872 28.0329C14.0842 28.0329 13.2272 26.7653 13.2272 23.9822L13.2285 23.8648L13.2298 23.7489L13.2314 23.6351L13.2355 23.5228L13.24 23.413L13.2445 23.3039L13.2502 23.1977L13.2573 23.093L13.2656 22.9897L13.2742 22.8899L13.2842 22.7924L13.2954 22.6959L13.3069 22.6009L13.3197 22.5073L13.3341 22.4173L13.3485 22.3273L13.3645 22.2409L13.3818 22.1574L13.399 22.0738L13.4179 21.9932L13.4378 21.914L13.4576 21.8366L13.4787 21.7628L13.5018 21.6904L13.5261 21.6199L13.5504 21.5507L13.5763 21.4849L13.6035 21.419L13.6304 21.3563L13.6589 21.2966L13.689 21.2383L13.719 21.1825C14.1475 20.4142 14.9565 19.9844 15.9872 19.9844ZM22.3968 18.0587V29.9611H24.6477V25.8016H28.2656C29.471 25.8016 30.0403 25.6245 30.6592 25.0355C31.3888 24.34 31.8333 23.1801 31.8333 21.9305C31.8333 20.8779 31.5005 19.8958 30.8819 19.1463C30.1843 18.2719 29.5331 18.0587 27.6774 18.0587H22.3968ZM24.6477 20.1824H27.7565C28.1213 20.1824 28.407 20.2173 28.5814 20.2889C29.0736 20.4851 29.3594 21.0561 29.3594 21.8409C29.3594 22.5015 29.1843 23.0728 28.8992 23.3407L28.8765 23.363L28.8534 23.3849L28.8291 23.4062L28.8051 23.4274L28.7792 23.4465L28.7536 23.4645L28.7264 23.4821L28.6979 23.4987L28.6691 23.5142L28.639 23.5304L28.609 23.5437L28.5776 23.5577L28.5443 23.5707L28.5114 23.5811L28.4771 23.5927L28.4413 23.6038L28.4045 23.6128L28.3674 23.6204L28.3286 23.6283L28.2886 23.6362L28.2474 23.6427L28.2058 23.6492L28.1613 23.6542L28.1168 23.6607L28.071 23.6643L28.0224 23.6675L27.9738 23.6711L27.9238 23.6744L27.872 23.6755L27.8189 23.6773H27.7645L27.7085 23.6787H24.647V20.1824H24.6477ZM39.2086 25.0532H35.1325V29.9596H32.88V18.0587H35.1325V22.9299H39.2086V18.0587H41.4611V29.9596H39.2086V25.0532ZM48.0282 17.9688C46.5376 17.9688 45.2368 18.3795 44.4118 19.129C43.3651 20.0571 42.8086 21.7883 42.8086 24.0725C42.8086 25.6601 43.1104 26.9637 43.7299 27.9447C44.5536 29.2835 46.1562 30.0334 48.1869 30.0334C49.615 30.0334 50.8195 29.6399 51.6118 28.9264C52.6586 27.9814 53.2461 26.2667 53.2461 24.1787L53.2416 23.8382L53.2291 23.503L53.208 23.1769L53.1792 22.8568L53.1418 22.5447L53.096 22.2423L53.0429 21.9496L52.9827 21.6663L52.9485 21.5281L52.9142 21.3931L52.8774 21.2595L52.8374 21.131L52.7974 21.0028L52.7542 20.8786L52.7098 20.7584L52.664 20.6389L52.6154 20.5251L52.5654 20.4128L52.5142 20.3037L52.4611 20.199L52.4054 20.0963L52.3498 19.9966L52.2902 19.9016L52.2301 19.8101C51.4218 18.6297 49.9162 17.9688 48.0282 17.9688ZM48.0445 19.9844C49.9312 19.9844 50.7725 21.2347 50.7725 24.0178C50.7725 26.7661 49.9155 28.0329 48.0445 28.0329C46.1414 28.0329 45.2845 26.7653 45.2845 23.9822V23.8648L45.2858 23.7489L45.289 23.6351L45.2915 23.5228L45.296 23.413L45.3024 23.3039L45.3082 23.1977L45.3149 23.093L45.3216 22.9897L45.3302 22.8899L45.3414 22.7924L45.3514 22.6959L45.3626 22.6009L45.3757 22.5073L45.3894 22.4173L45.4045 22.3273L45.4202 22.2409L45.4371 22.1574L45.4547 22.0738L45.4736 21.9932L45.4934 21.914L45.5133 21.8366L45.5357 21.7628L45.5581 21.6904L45.5811 21.6199L45.6054 21.5507L45.631 21.4849L45.6586 21.419L45.6854 21.3563L45.7142 21.2966L45.7443 21.2383L45.7763 21.1825C46.2038 20.4142 47.0131 19.9844 48.0445 19.9844ZM54.5789 27.8371H59.4006C60.2406 27.8371 60.7005 27.7478 60.9706 27.5516C61.303 27.319 61.4938 26.9277 61.4938 26.4637C61.4938 25.9103 61.24 25.4283 60.8118 25.1961C60.5894 25.0535 60.1776 24.9819 59.6701 24.9819H57.7187C56.4499 24.9819 55.625 24.7321 55.0701 24.1967C54.4358 23.5718 54.0707 22.6084 54.0707 21.5738C54.0707 20.0571 54.8157 18.7366 55.9107 18.3082C56.3862 18.1117 56.9421 18.0587 58.1789 18.0587H63.4131V20.182H58.6864C57.687 20.1997 57.6077 20.1997 57.2752 20.2889C56.8307 20.4135 56.561 20.8775 56.561 21.5018C56.561 22.0378 56.7834 22.4659 57.1648 22.6621C57.481 22.823 57.7347 22.8583 58.4966 22.8583H60.1936C61.7478 22.8583 62.5885 23.1261 63.208 23.84C63.6832 24.3749 64 25.4279 64 26.4633C64 27.7302 63.4768 28.9073 62.6518 29.4787C62.1286 29.8531 61.4624 29.96 59.8918 29.96H54.5786V27.8371H54.5789Z" fill="#007AFF"/>
</g>
<defs>
<clipPath id="clip0_1407_478">
<rect width="64" height="48" fill="white"/>
</clipPath>
</defs>
</svg>
