<svg width="77" height="41" viewBox="0 0 77 41" fill="none" xmlns="http://www.w3.org/2000/svg">
<path d="M68.1153 17.7578V30.347L66.1755 32.0431V19.732L68.1153 17.7578Z" fill="#E79224"/>
<path d="M66.2069 19.7324H53.3612V32.0586H66.2069V19.7324Z" fill="url(#paint0_linear_1407_838)"/>
<path d="M55.3728 17.766L53.3608 19.7321H66.2063L68.1149 17.7578L55.3724 17.766" fill="#FEF26F"/>
<path d="M39.4633 18.3064L52.0988 16.7324L51.0417 19.4473L39.0712 21.1485L39.1222 19.2078L39.4633 18.3064Z" fill="#91C9ED"/>
<path d="M51.042 19.4469L52.7925 30.4898L40.3332 32.0586L38.6508 21.3827L39.3783 20.8733L51.0424 19.4471" fill="url(#paint1_linear_1407_838)"/>
<path d="M52.0992 16.7324L52.109 16.799L53.7476 28.1066L52.7924 30.4902L51.0421 19.4473" fill="#0B9AD6"/>
<mask id="mask0_1407_838" style="mask-type:luminance" maskUnits="userSpaceOnUse" x="23" y="17" width="17" height="16">
<path d="M28.7914 17.3632L39.9779 21.8863L34.9303 32.1543L23.7438 27.6315L28.7914 17.3628" fill="white"/>
</mask>
<g mask="url(#mask0_1407_838)">
<path d="M8.88477 13.8482H68.1157V32.1504H8.88477V13.8482Z" fill="url(#paint2_linear_1407_838)"/>
</g>
<path d="M27.6298 13.8496L28.7909 17.3643L39.9771 21.8873L39.0368 18.5289L27.6298 13.8496Z" fill="#98D0A0"/>
<path d="M27.6297 13.8496L23.1273 23.425L23.7432 27.6329L28.7908 17.3643L27.6297 13.8496Z" fill="#68BF6B"/>
<path d="M21.389 19.4315L23.2328 30.2981L10.8703 32.0352L8.88464 21.1478L21.3888 19.4321" fill="url(#paint3_linear_1407_838)"/>
<path d="M8.88477 21.1452L9.75278 17.2657L22.2351 15.4727L21.3891 19.4295L8.88477 21.1455" fill="#EF463D"/>
<path d="M22.2354 15.4727L24.0654 26.444L23.2332 30.2958L21.3893 19.4296L22.2354 15.4727Z" fill="#761116"/>
<path d="M48.9226 21.5631C48.8662 21.2201 48.7355 20.9584 48.5237 20.7871C48.3554 20.65 48.1434 20.5809 47.902 20.5812C47.8381 20.5815 47.7743 20.5859 47.7112 20.5944C47.3877 20.6359 47.1399 20.7701 46.9882 20.9919C46.8777 21.1521 46.8242 21.3451 46.8242 21.5675C46.8242 21.6526 46.832 21.7423 46.8475 21.8364L47.3019 24.7098L43.7195 25.182L43.2651 22.3082C43.2102 21.9742 43.0813 21.7152 42.8724 21.539C42.7037 21.3962 42.4933 21.3234 42.256 21.3237C42.2 21.3237 42.1424 21.3278 42.0838 21.3356C41.7466 21.379 41.4897 21.5108 41.3338 21.7291C41.2207 21.8865 41.1661 22.0805 41.1661 22.3064C41.1661 22.3931 41.1743 22.4846 41.1898 22.5813L42.4157 30.054C42.4718 30.3977 42.606 30.6589 42.8264 30.8276C42.9984 30.9594 43.2138 31.0256 43.4608 31.0253C43.5282 31.0253 43.5984 31.0205 43.6707 31.011C43.9791 30.9709 44.2175 30.8371 44.3611 30.6158C44.464 30.4584 44.5142 30.2694 44.5142 30.0531C44.5142 29.9665 44.5061 29.8757 44.4905 29.7807L43.9897 26.8282L47.5721 26.3564L48.0731 29.3089C48.1283 29.6479 48.261 29.9074 48.4783 30.0785C48.6511 30.2145 48.8643 30.2829 49.1064 30.2826C49.1687 30.2826 49.2322 30.2784 49.2979 30.2698C49.6202 30.2277 49.867 30.0955 50.0144 29.8755C50.1206 29.7187 50.1717 29.5285 50.1717 29.3093C50.1717 29.2225 50.1639 29.1314 50.1484 29.0355L48.9226 21.5631ZM34.3529 25.6963C33.9313 26.5857 33.375 27.1963 32.6863 27.5343C32.3174 27.7155 31.9394 27.8052 31.5483 27.8052C31.2084 27.8052 30.8582 27.7373 30.4964 27.6C29.7136 27.301 29.2259 26.8204 29.0147 26.1423C28.943 25.9085 28.9073 25.667 28.9085 25.4245C28.9085 24.9268 29.048 24.3811 29.3292 23.787C29.7602 22.8763 30.3228 22.2551 31.0117 21.9147C31.3798 21.733 31.7582 21.6427 32.1506 21.6427C32.4941 21.6427 32.8491 21.7117 33.2169 21.8514C33.9949 22.1481 34.4777 22.6299 34.685 23.311C34.7534 23.5405 34.7875 23.7771 34.7863 24.0147C34.7863 24.5227 34.6429 25.0835 34.3529 25.6963ZM35.5783 21.2233C35.1388 20.8078 34.6049 20.4813 33.9789 20.2434C33.3574 20.0067 32.729 19.8887 32.0958 19.8887L32.0666 19.8889C31.4237 19.8925 30.7883 20.0208 30.1619 20.2726C29.5063 20.5283 28.935 20.8859 28.4504 21.3455C27.9655 21.8047 27.5707 22.3571 27.2658 23.0006C26.9653 23.6366 26.7985 24.2729 26.7674 24.9093C26.7362 25.5436 26.8439 26.1772 27.0844 26.7744C27.3121 27.3418 27.6481 27.8332 28.0911 28.2472C28.5339 28.6614 29.0786 28.9908 29.723 29.2353C30.3396 29.47 30.9656 29.5873 31.5997 29.5869H31.6161C32.2554 29.5843 32.8897 29.4615 33.5167 29.2201L33.5174 29.22L33.5178 29.2198C34.1665 28.9625 34.7527 28.5938 35.2432 28.1345C35.7334 27.6751 36.1298 27.1242 36.4329 26.4844C36.7358 25.8445 36.9008 25.2076 36.928 24.574C36.9545 23.9414 36.8412 23.3103 36.5946 22.7171C36.3567 22.1369 36.0177 21.6385 35.5783 21.2233ZM20.0606 28.5673C19.9632 28.463 19.8321 28.3859 19.6721 28.3358C19.5077 28.2844 19.3092 28.2596 19.0751 28.2596C18.8546 28.2596 18.6027 28.2816 18.3184 28.3253L15.0555 28.825C15.0898 28.5997 15.2148 28.3034 15.435 27.9428C15.6809 27.5384 16.0434 27.0528 16.5221 26.4875L16.5224 26.4871L16.8992 26.0361C16.9615 25.967 17.0483 25.8652 17.1606 25.7309C17.9071 24.8533 18.3691 24.1389 18.5464 23.5782C18.6477 23.2603 18.7094 22.9398 18.7316 22.6173C18.7377 22.5289 18.7406 22.4411 18.7406 22.3541C18.7409 22.1253 18.7195 21.8969 18.6767 21.6713C18.6379 21.467 18.5817 21.2972 18.5065 21.161C18.4314 21.025 18.3358 20.9215 18.218 20.8563C18.0852 20.7838 17.8981 20.7531 17.6536 20.7527C17.4516 20.7527 17.2096 20.7747 16.9261 20.8179L13.1553 21.3962C12.6988 21.4661 12.3616 21.5865 12.1463 21.7681C11.9754 21.912 11.8869 22.0981 11.8879 22.3117C11.8879 22.3675 11.8937 22.4251 11.9051 22.485C11.9582 22.7722 12.1251 22.9826 12.3945 23.0897C12.5532 23.1539 12.7453 23.1847 12.9694 23.1847C13.122 23.1847 13.2896 23.1704 13.4728 23.1426L16.629 22.6655C16.6343 22.7154 16.638 22.7654 16.638 22.8148C16.6379 22.9919 16.6032 23.1676 16.5354 23.334C16.4417 23.5681 16.2076 23.9027 15.8347 24.328C15.7289 24.4442 15.5671 24.6252 15.3488 24.8703C14.4977 25.7942 13.8881 26.5819 13.5192 27.2371L13.519 27.2378C13.2572 27.6888 13.0754 28.1334 12.9757 28.5706C12.919 28.8123 12.8897 29.0586 12.8881 29.3056C12.8881 29.4738 12.9032 29.6367 12.9335 29.7943C12.9765 30.0205 13.0388 30.2072 13.1228 30.3549C13.2067 30.502 13.3137 30.6122 13.4459 30.6772C13.569 30.737 13.7498 30.7608 13.9988 30.7613C14.3145 30.7613 14.74 30.7196 15.2781 30.6374L18.6998 30.1131C19.3055 30.0197 19.7271 29.8902 19.9718 29.7101C20.1674 29.566 20.2689 29.3682 20.2679 29.1354C20.2679 29.0765 20.2618 29.0155 20.2495 28.9524C20.2209 28.801 20.1582 28.6714 20.0606 28.5673ZM61.6056 28.2283C61.1134 28.7613 60.4507 29.026 59.5953 29.0267C58.7338 29.026 58.0684 28.7622 57.5733 28.232C57.0801 27.7013 56.8303 26.9715 56.8299 26.035C56.8303 25.0806 57.0791 24.3403 57.5699 23.8053C58.0619 23.2705 58.7293 23.0051 59.5953 23.004C60.4507 23.0051 61.1132 23.2703 61.6056 23.8053C62.0968 24.3401 62.346 25.0806 62.346 26.035C62.346 26.9672 62.0974 27.6961 61.6056 28.2283ZM64.2458 24.1664C63.9916 23.5941 63.6152 23.0811 63.1176 22.6281C62.6413 22.1929 62.1058 21.8646 61.5147 21.644C60.9231 21.4235 60.2832 21.3133 59.5961 21.3135C58.9044 21.3135 58.2584 21.4233 57.662 21.6438C57.066 21.8644 56.5309 22.1931 56.0591 22.6285C55.5622 23.0767 55.1874 23.5881 54.9386 24.1602C54.6899 24.733 54.5653 25.3575 54.5653 26.0332C54.5653 26.7001 54.6901 27.3226 54.9425 27.8991C55.1937 28.4756 55.5667 28.9932 56.0591 29.4502C56.5207 29.8775 57.0503 30.2009 57.6438 30.4191C58.2377 30.6369 58.8892 30.7462 59.5963 30.7462C60.2779 30.7462 60.9167 30.6371 61.5103 30.4191C62.1042 30.2011 62.6407 29.8779 63.1172 29.4507C63.6152 28.9932 63.9914 28.4773 64.2458 27.9024C64.5001 27.3284 64.6274 26.7045 64.6274 26.0332C64.6274 25.3617 64.5001 24.7391 64.2458 24.1664Z" fill="white"/>
<defs>
<linearGradient id="paint0_linear_1407_838" x1="59.7845" y1="19.903" x2="59.7845" y2="31.6815" gradientUnits="userSpaceOnUse">
<stop stop-color="#FFE500"/>
<stop offset="1" stop-color="#FCB822"/>
</linearGradient>
<linearGradient id="paint1_linear_1407_838" x1="39.292" y1="21.1495" x2="51.0478" y2="31.6849" gradientUnits="userSpaceOnUse">
<stop stop-color="#168CCC"/>
<stop offset="1" stop-color="#00649E"/>
</linearGradient>
<linearGradient id="paint2_linear_1407_838" x1="31.8602" y1="21.4716" x2="31.8602" y2="31.7905" gradientUnits="userSpaceOnUse">
<stop stop-color="#25A149"/>
<stop offset="1" stop-color="#008A52"/>
</linearGradient>
<linearGradient id="paint3_linear_1407_838" x1="15.1558" y1="20.4631" x2="16.7544" y2="31.233" gradientUnits="userSpaceOnUse">
<stop stop-color="#D92231"/>
<stop offset="1" stop-color="#BA2234"/>
</linearGradient>
</defs>
</svg>
