<svg width="60" height="61" viewBox="0 0 60 61" fill="none" xmlns="http://www.w3.org/2000/svg">
<rect y="0.5" width="60" height="60" rx="30" fill="#004BFF"/>
<path d="M40.4239 26.7979C41.8301 25.3917 41.1889 23.7492 40.4239 22.9504L37.0489 19.5754C35.6314 18.1692 34.0001 18.8104 33.2014 19.5754L31.2889 21.4992H28.3751C26.2376 21.4992 25.0001 22.6242 24.3701 23.9179L19.3751 28.9129V33.4129L18.5764 34.2004C17.1701 35.6179 17.8114 37.2492 18.5764 38.0479L21.9514 41.4229C22.5589 42.0304 23.2114 42.2554 23.8301 42.2554C24.6289 42.2554 25.3601 41.8617 25.7989 41.4229L28.8364 38.3742H32.8751C34.7876 38.3742 35.7551 37.1817 36.1039 36.0117C37.3751 35.6742 38.0726 34.7067 38.3539 33.7617C40.0976 33.3117 40.7501 31.6579 40.7501 30.4992V27.1242H40.0864L40.4239 26.7979ZM38.5001 30.4992C38.5001 31.0054 38.2864 31.6242 37.3751 31.6242H36.2501V32.7492C36.2501 33.2554 36.0364 33.8742 35.1251 33.8742H34.0001V34.9992C34.0001 35.5054 33.7864 36.1242 32.8751 36.1242H27.9139L24.2239 39.8142C23.8751 40.1404 23.6726 39.9492 23.5489 39.8254L20.1851 36.4729C19.8589 36.1242 20.0501 35.9217 20.1739 35.7979L21.6251 34.3354V29.8354L23.8751 27.5854V29.3742C23.8751 30.7354 24.7751 32.7492 27.2501 32.7492C29.7251 32.7492 30.6251 30.7354 30.6251 29.3742H38.5001V30.4992ZM38.8264 25.2004L36.9139 27.1242H28.3751V29.3742C28.3751 29.8804 28.1614 30.4992 27.2501 30.4992C26.3389 30.4992 26.1251 29.8804 26.1251 29.3742V25.9992C26.1251 25.4817 26.3164 23.7492 28.3751 23.7492H32.2114L34.7764 21.1842C35.1251 20.8579 35.3276 21.0492 35.4514 21.1729L38.8151 24.5254C39.1414 24.8742 38.9501 25.0767 38.8264 25.2004Z" fill="white"/>
</svg>
