<svg width="17" height="17" viewBox="0 0 17 17" fill="none" xmlns="http://www.w3.org/2000/svg">
<path d="M11.6616 2.18164H5.11971C3.31321 2.18164 1.84875 3.6461 1.84875 5.45259V11.9945C1.84875 13.801 3.31321 15.2655 5.11971 15.2655H11.6616C13.4681 15.2655 14.9326 13.801 14.9326 11.9945V5.45259C14.9326 3.6461 13.4681 2.18164 11.6616 2.18164Z" stroke="white" stroke-width="0.981286" stroke-linecap="round" stroke-linejoin="round"/>
<path d="M11.0075 8.31105C11.0882 8.8555 10.9952 9.41154 10.7417 9.90009C10.4882 10.3886 10.0871 10.7848 9.59548 11.0323C9.10384 11.2797 8.5467 11.3659 8.00329 11.2784C7.45988 11.191 6.95787 10.9344 6.56868 10.5452C6.17949 10.156 5.92292 9.65403 5.83548 9.11061C5.74804 8.5672 5.83417 8.01006 6.08163 7.51842C6.32908 7.02678 6.72526 6.62569 7.21381 6.37219C7.70236 6.11869 8.2584 6.0257 8.80285 6.10643C9.3582 6.18878 9.87235 6.44757 10.2693 6.84456C10.6663 7.24155 10.9251 7.7557 11.0075 8.31105Z" stroke="white" stroke-width="0.981286" stroke-linecap="round" stroke-linejoin="round"/>
<path d="M11.9888 5.125H11.9953" stroke="white" stroke-width="0.981286" stroke-linecap="round" stroke-linejoin="round"/>
</svg>
