<svg width="50" height="40" viewBox="0 0 124 155" fill="none" xmlns="http://www.w3.org/2000/svg">
<path d="M121.735 89.5465L114.565 86.5932C113.945 86.3385 113.544 85.7358 113.544 85.0665L113.461 3.43452C113.461 1.23853 111.253 -0.254822 109.244 0.586517L84.4865 10.9519C83.3586 11.4239 82.6146 12.5372 82.6012 13.7758L82.0972 68.6812C82.0772 70.8572 79.8932 72.3332 77.8932 71.5092L4.25322 41.2078C2.25189 40.3838 0.0532227 41.8772 0.0532227 44.0692V71.7932C0.0532227 73.0532 0.809226 74.1785 1.95456 74.6505L19.9146 82.0332C21.0559 82.5025 21.8132 83.6358 21.8132 84.8905V151.225C21.8132 153.443 24.0612 154.94 26.0666 154.057L51.4652 142.96C52.5732 142.467 53.3012 141.357 53.3012 140.128V100.343C53.3012 98.1558 55.4959 96.6572 57.5012 97.4772L80.1506 106.797C81.3039 107.267 82.0519 108.4 82.0519 109.655V150.699C82.0519 152.828 84.1359 154.312 86.1199 153.605L110.861 144.759C112.048 144.336 112.857 143.219 112.887 141.943L113.491 122.292C113.52 121.433 114.38 120.865 115.165 121.187L119.432 122.944C121.445 123.772 123.632 122.275 123.632 120.087V92.4038C123.632 91.1492 122.876 90.0145 121.735 89.5465Z" fill="#004BFF"/>
<path d="M48.4811 47.8111L24.9678 39.3777C23.5051 38.8511 22.5171 37.4577 22.4958 35.8817L22.1611 12.7831C22.1358 11.1551 23.1451 9.69908 24.6544 9.16842L48.5011 0.78175C50.9251 -0.0715828 53.4504 1.74308 53.4504 4.33642V44.2591C53.4504 46.8617 50.9038 48.6817 48.4811 47.8111Z" fill="#004BFF"/>
</svg>
 