<svg width="16" height="17" viewBox="0 0 16 17" fill="none" xmlns="http://www.w3.org/2000/svg">
<g clip-path="url(#clip0_1407_1339)">
<path d="M10.7354 6.10547C11.7765 6.10547 12.7748 6.51901 13.5109 7.25512C14.247 7.99122 14.6606 8.9896 14.6606 10.0306V14.6099H12.0438V10.0306C12.0438 9.68361 11.906 9.35082 11.6606 9.10545C11.4152 8.86008 11.0825 8.72223 10.7354 8.72223C10.3884 8.72223 10.0557 8.86008 9.81028 9.10545C9.56491 9.35082 9.42707 9.68361 9.42707 10.0306V14.6099H6.8103V10.0306C6.8103 8.9896 7.22384 7.99122 7.95995 7.25512C8.69606 6.51901 9.69443 6.10547 10.7354 6.10547Z" stroke="white" stroke-width="0.735964" stroke-linecap="round" stroke-linejoin="round"/>
<path d="M4.19342 6.76172H1.57666V14.612H4.19342V6.76172Z" stroke="white" stroke-width="0.735964" stroke-linecap="round" stroke-linejoin="round"/>
<path d="M2.88504 4.7984C3.60764 4.7984 4.19342 4.21262 4.19342 3.49002C4.19342 2.76742 3.60764 2.18164 2.88504 2.18164C2.16244 2.18164 1.57666 2.76742 1.57666 3.49002C1.57666 4.21262 2.16244 4.7984 2.88504 4.7984Z" stroke="white" stroke-width="0.735964" stroke-linecap="round" stroke-linejoin="round"/>
</g>
<defs>
<clipPath id="clip0_1407_1339">
<rect width="15.7006" height="15.7006" fill="white" transform="translate(0.268311 0.873047)"/>
</clipPath>
</defs>
</svg>
