<svg width="30" height="30" viewBox="0 0 30 30" fill="none" xmlns="http://www.w3.org/2000/svg">
<mask id="mask0_317_2401" style="mask-type:alpha" maskUnits="userSpaceOnUse" x="5" y="5" width="20" height="20">
<rect x="5" y="5" width="20" height="20" fill="#D9D9D9"/>
</mask>
<g mask="url(#mask0_317_2401)">
<path d="M15.0008 23.3327C13.5286 23.3327 12.3272 23.1 11.3966 22.6348C10.4661 22.1695 10.0008 21.5688 10.0008 20.8327C10.0008 20.4993 10.1015 20.1903 10.3029 19.9056C10.5043 19.6209 10.7855 19.3743 11.1466 19.166L12.4591 20.3952C12.3341 20.4507 12.1987 20.5132 12.0529 20.5827C11.9071 20.6521 11.7925 20.7355 11.7091 20.8327C11.8897 21.0549 12.3064 21.2493 12.9591 21.416C13.6119 21.5827 14.2925 21.666 15.0008 21.666C15.7091 21.666 16.3932 21.5827 17.0529 21.416C17.7126 21.2493 18.1328 21.0549 18.3133 20.8327C18.2161 20.7216 18.0911 20.6313 17.9383 20.5618C17.7855 20.4924 17.6397 20.4299 17.5008 20.3743L18.7925 19.1243C19.1814 19.3466 19.48 19.6 19.6883 19.8848C19.8966 20.1695 20.0008 20.4855 20.0008 20.8327C20.0008 21.5688 19.5355 22.1695 18.605 22.6348C17.6744 23.1 16.473 23.3327 15.0008 23.3327ZM15.0216 18.7493C16.3966 17.7355 17.4314 16.7181 18.1258 15.6973C18.8203 14.6764 19.1675 13.6521 19.1675 12.6243C19.1675 11.2077 18.7161 10.1382 17.8133 9.41602C16.9105 8.69379 15.973 8.33268 15.0008 8.33268C14.0286 8.33268 13.0911 8.69379 12.1883 9.41602C11.2855 10.1382 10.8341 11.2077 10.8341 12.6243C10.8341 13.5549 11.1744 14.5237 11.855 15.5306C12.5355 16.5375 13.5911 17.6105 15.0216 18.7493ZM15.0008 20.8327C13.0425 19.3882 11.5807 17.9855 10.6154 16.6243C9.65012 15.2632 9.16748 13.9299 9.16748 12.6243C9.16748 11.6382 9.34456 10.7737 9.69873 10.0306C10.0529 9.28754 10.5078 8.66602 11.0633 8.16602C11.6189 7.66602 12.2439 7.29102 12.9383 7.04102C13.6328 6.79102 14.3203 6.66602 15.0008 6.66602C15.6814 6.66602 16.3689 6.79102 17.0633 7.04102C17.7578 7.29102 18.3828 7.66602 18.9383 8.16602C19.4939 8.66602 19.9487 9.28754 20.3029 10.0306C20.6571 10.7737 20.8341 11.6382 20.8341 12.6243C20.8341 13.9299 20.3515 15.2632 19.3862 16.6243C18.421 17.9855 16.9591 19.3882 15.0008 20.8327ZM15.0008 14.166C15.4591 14.166 15.8515 14.0028 16.1779 13.6764C16.5043 13.35 16.6675 12.9577 16.6675 12.4993C16.6675 12.041 16.5043 11.6487 16.1779 11.3223C15.8515 10.9959 15.4591 10.8327 15.0008 10.8327C14.5425 10.8327 14.1501 10.9959 13.8237 11.3223C13.4973 11.6487 13.3341 12.041 13.3341 12.4993C13.3341 12.9577 13.4973 13.35 13.8237 13.6764C14.1501 14.0028 14.5425 14.166 15.0008 14.166Z" fill="#004BFF"/>
</g>
</svg>
