<svg width="30" height="20" viewBox="0 0 30 20" fill="none" xmlns="http://www.w3.org/2000/svg">
<path d="M1.55978 20H28.4402C29.3043 19.9531 30 19.2604 30 18.4219V1.57812C30 0.713542 29.2663 0.00520833 28.3641 0H1.63587C0.733696 0.00520833 0 0.713542 0 1.57812V18.4167C0 19.2604 0.695652 19.9531 1.55978 20Z" fill="#FEFEFE"/>
<path d="M12.9022 11.9948V20H17.0761V11.9948H30V7.99479H17.0761V0H12.9022V7.99479H0V11.9948H12.9022Z" fill="#C8102E"/>
<path d="M18.4674 6.47396V0H28.375C29.0598 0.0104167 29.6468 0.421875 29.8859 1L18.4674 6.47396Z" fill="#012169"/>
<path d="M18.4674 13.5254V19.9994H28.4402C29.0978 19.9629 29.6522 19.5566 29.8859 18.9993L18.4674 13.5254Z" fill="#012169"/>
<path d="M11.5109 13.5254V19.9994H1.55979C0.902179 19.9629 0.342397 19.5566 0.114136 18.9889L11.5109 13.5254Z" fill="#012169"/>
<path d="M11.5109 6.47396V0H1.62501C0.940223 0.0104167 0.347831 0.427083 0.114136 1.01042L11.5109 6.47396Z" fill="#012169"/>
<path d="M0 6.66667H4.15761L0 4.67188V6.66667Z" fill="#012169"/>
<path d="M30 6.66732H25.8207L30 4.66211V6.66732Z" fill="#012169"/>
<path d="M30 13.334H25.8207L30 15.3392V13.334Z" fill="#012169"/>
<path d="M0 13.334H4.15761L0 15.3288V13.334Z" fill="#012169"/>
<path d="M30 1.69336L19.6467 6.66732H21.9619L30 2.81315V1.69336Z" fill="#C8102E"/>
<path d="M10.3315 13.334H8.0163L0 17.1777V18.2975L10.3533 13.334H10.3315Z" fill="#C8102E"/>
<path d="M5.71739 6.67253H8.03261L0 2.81836V3.93294L5.71739 6.67253Z" fill="#C8102E"/>
<path d="M24.2554 13.3281H21.9402L30 17.1979V16.0833L24.2554 13.3281Z" fill="#C8102E"/>
</svg>
